<?xml version="1.0" encoding="UTF-8" standalone="no"?>
<!DOCTYPE svg PUBLIC "-//W3C//DTD SVG 1.1//EN" "http://www.w3.org/Graphics/SVG/1.1/DTD/svg11.dtd">
<svg width="100%" height="100%" viewBox="0 0 1200 350" version="1.1" xmlns="http://www.w3.org/2000/svg" xmlns:xlink="http://www.w3.org/1999/xlink" xml:space="preserve" xmlns:serif="http://www.serif.com/" style="fill-rule:evenodd;clip-rule:evenodd;stroke-linejoin:round;stroke-miterlimit:2;">
    <path d="M811.322,39.642L1092.1,39.642L1092.1,203L856.322,203L856.322,310.358L800.322,310.358L800.322,95.642L510.111,95.642L510.111,147L745.889,147L745.889,310.358L225.789,310.358L225.789,95.642L107.901,95.642L107.901,39.642L399.678,39.642L399.678,95.642L281.789,95.642L281.789,254.358L689.889,254.358L689.889,203L454.111,203L454.111,39.642L734.889,39.642C734.889,39.642 734.889,50.642 734.889,50.642L734.889,39.642L811.322,39.642C811.322,39.642 811.322,50.642 811.322,50.642L811.322,39.642ZM1081.1,50.642L465.111,50.642L465.111,192L700.889,192L700.889,265.358L270.789,265.358L270.789,84.642L388.678,84.642L388.678,50.642L118.901,50.642L118.901,84.642L236.789,84.642L236.789,299.358L734.889,299.358L734.889,158L499.111,158L499.111,84.642L811.322,84.642L811.322,299.358L845.322,299.358L845.322,192L1081.1,192L1081.1,50.642Z" style="fill:rgb(0,115,230);"/>
</svg>
