<?xml version="1.0" encoding="UTF-8" standalone="no"?>
<!DOCTYPE svg PUBLIC "-//W3C//DTD SVG 1.1//EN" "http://www.w3.org/Graphics/SVG/1.1/DTD/svg11.dtd">
<svg width="100%" height="100%" viewBox="0 0 295 235" version="1.1" xmlns="http://www.w3.org/2000/svg" xmlns:xlink="http://www.w3.org/1999/xlink" xml:space="preserve" xmlns:serif="http://www.serif.com/" style="fill-rule:evenodd;clip-rule:evenodd;stroke-linejoin:round;stroke-miterlimit:2;">
    <g transform="matrix(1,0,0,1,-252.903,-182.757)">
        <g transform="matrix(1,0,0,1,13.2183,24.3906)">
            <path d="M493.968,272.038L493.968,384.015C493.968,388.893 490.008,392.853 485.131,392.853L414.39,392.853L414.39,302.792L358.306,302.792L358.306,392.853L287.565,392.853C282.687,392.853 278.727,388.893 278.727,384.015L278.727,272.539L386.782,210.154L493.968,272.038ZM452.41,194.704L452.41,166.944C452.41,162.21 456.254,158.366 460.989,158.366L485.39,158.366C490.124,158.366 493.968,162.21 493.968,166.944L493.968,218.697L529.355,239.128C533.68,241.625 535.164,247.163 532.667,251.488L523.618,267.161C521.121,271.486 515.582,272.97 511.257,270.473L386.782,198.607L262.306,270.473C257.981,272.97 252.442,271.486 249.945,267.161L240.897,251.488C238.4,247.163 239.884,241.625 244.209,239.128L381.993,159.578C383.502,158.707 385.158,158.32 386.782,158.371C388.405,158.32 390.062,158.707 391.571,159.578L452.41,194.704Z" style="fill:white;"/>
        </g>
    </g>
</svg>
